<svg xmlns:dc="http://purl.org/dc/elements/1.1/" xmlns:cc="http://creativecommons.org/ns#" xmlns:rdf="http://www.w3.org/1999/02/22-rdf-syntax-ns#" xmlns:svg="http://www.w3.org/2000/svg" xmlns="http://www.w3.org/2000/svg" xmlns:sodipodi="http://sodipodi.sourceforge.net/DTD/sodipodi-0.dtd" xmlns:inkscape="http://www.inkscape.org/namespaces/inkscape" viewBox="0 0 12.7 15.875" version="1.1" x="0px" y="0px"><g transform="translate(0,-284.29998)"><path style="" d="m 10.6435,286.82763 a 2.1934584,2.1934584 0 0 0 -0.9323,0.19378 l -2.7435,1.23714 -2.7347,-0.91776 a 1.8812261,1.8812261 0 0 0 -1.3162,0.19741 0.23255715,0.23255715 0 0 0 -0.011,0.39944 l 1.9812,1.25936 -2.2184,1.00044 a 0.07705882,0.07705882 0 0 1 -0.073,-0.005 l -1.4717,-0.92397 a 0.38804638,0.38804638 0 0 0 -0.5566,0.49609 l 0.8894,1.85933 a 0.62885282,0.62885282 0 0 0 0.5467,0.35708 6.3216712,6.3216712 0 0 0 2.8086,-0.55501 v 0 l 1.5043,-0.6785 -0.6025,3.45249 a 0.23255715,0.23255715 0 0 0 0.3017,0.26096 1.7632513,1.7632513 0 0 0 0.9437,-0.73639 l 1.88,-4.11498 1.5415,-0.69506 a 7.2783218,7.2783218 0 0 0 1.6521,-1.00354 0.35357847,0.35357847 0 0 0 0.016,-0.54726 2.1934584,2.1934584 0 0 0 -1.4061,-0.53589 z m 0,0.2589 a 1.9347547,1.9347547 0 0 1 1.2397,0.47233 0.09487478,0.09487478 0 0 1 -0.01,0.1483 7.0196177,7.0196177 0 0 1 -1.5973,0.97102 l -1.5658,0.70588 a 0.19127503,0.19127503 0 0 0 -0.095,0.0951 l -1.8836,4.12171 a 1.5045476,1.5045476 0 0 1 -0.7545,0.59997 l 0.6165,-3.53468 a 0.19127503,0.19127503 0 0 0 -0.2672,-0.20722 l -1.62,0.7307 a 6.0629675,6.0629675 0 0 1 -2.6944,0.53279 0.37014914,0.37014914 0 0 1 -0.3215,-0.21031 l -0.8898,-1.85931 a 0.12934268,0.12934268 0 0 1 0.1855,-0.16536 l 1.4717,0.92395 a 0.33576252,0.33576252 0 0 0 0.3168,0.0217 l 2.3327,-1.05161 a 0.19127503,0.19127503 0 0 0 0.024,-0.33592 L 3.0824,287.74335 A 1.6225224,1.6225224 0 0 1 4.165,287.5909 l 2.7455,0.92138 a 0.19127503,0.19127503 0 0 0 0.1396,-0.007 l 2.7672,-1.24799 v 0 a 1.9347547,1.9347547 0 0 1 0.8227,-0.17105 z" fill="#000000" stroke="none"/></g><text x="0" y="27.7" fill="#000000" font-size="5px" font-weight="bold" font-family="'Helvetica Neue', Helvetica, Arial-Unicode, Arial, Sans-serif">Created by Phạm Thanh Lộc</text><text x="0" y="32.7" fill="#000000" font-size="5px" font-weight="bold" font-family="'Helvetica Neue', Helvetica, Arial-Unicode, Arial, Sans-serif">from the Noun Project</text></svg>